HIERARCHY
ROOT Hips
{
	OFFSET 0.000000 0.000000 0.000000 
	CHANNELS 6 Xposition Yposition Zposition Yrotation Zrotation Xrotation 
	JOINT Lumbar
	{
		OFFSET 0.000000 0.000000 0.000000 
		CHANNELS 3 Zrotation Xrotation Yrotation
		JOINT Neck
		{
			OFFSET 0.000000 0.445665 0.000000 
			CHANNELS 3 Zrotation Xrotation Yrotation
			End Site
			{
				OFFSET 0.000000 0.227535 0.000000 
			}
		}
		JOINT RightShoulder
		{
			OFFSET 0.019635 0.377685 0.194865 
			CHANNELS 3 Zrotation Xrotation Yrotation
			JOINT RightElbow
			{
				OFFSET 0.000000 -0.243375 0.000000 
				CHANNELS 2 Zrotation Yrotation
				JOINT RightWrist
				{
					OFFSET 0.000000 -0.264825 0.000000 
					CHANNELS 2 Zrotation Xrotation
					End Site
					{
						OFFSET 0.006600 -0.176220 0.000990 
					}
				}
			}
		}
		JOINT LeftShoulder
		{
			OFFSET 0.019635 0.377685 -0.194865 
			CHANNELS 3 Zrotation Xrotation Yrotation
			JOINT LeftElbow
			{
				OFFSET 0.000000 -0.243375 0.000000 
				CHANNELS 2 Zrotation Yrotation
				JOINT LeftWrist
				{
					OFFSET 0.000000 -0.264825 0.000000 
					CHANNELS 2 Zrotation Xrotation
					End Site
					{
						OFFSET 0.006600 -0.176220 -0.000990 
					}
				}
			}
		}
	}
	JOINT RightHip
	{
		OFFSET 0.052140 -0.069960 0.075570 
		CHANNELS 3 Zrotation Xrotation Yrotation
		JOINT RightKnee
		{
			OFFSET 0.000000 -0.402270 0.000000 
			CHANNELS 1 Zrotation
			JOINT RightAnkle
			{
				OFFSET 0.000000 -0.404085 0.000000 
				CHANNELS 3 Zrotation Xrotation Yrotation
				End Site
				{
					OFFSET 0.204105 -0.089430 0.008415 
				}
			}
		}
	}
	JOINT LeftHip
	{
		OFFSET 0.052140 -0.069960 -0.075570 
		CHANNELS 3 Zrotation Xrotation Yrotation
		JOINT LeftKnee
		{
			OFFSET 0.000000 -0.402270 0.000000 
			CHANNELS 1 Zrotation
			JOINT LeftAnkle
			{
				OFFSET 0.000000 -0.404085 0.000000 
				CHANNELS 3 Zrotation Xrotation Yrotation
				End Site
				{
					OFFSET 0.204105 -0.089430 -0.008415 
				}
			}
		}
	}
}
MOTION
Frames: 13
Frame Time: 0.02
-0.00045 3e-05 -6e-05 -174.80956 45.23204 0.08417 -83.26227 5.82626 197.35871 26.25199 -76.80064 0.78449 26.71859 90.70458 -118.43013 0.80171 77.69296 -5.48992 -4.07226 -287.08277 -76.43177 102.53107 1.70875 -60.84521 -151.72041 33.98315 -46.05268 24.53547 77.83159 18.13926 -92.50062 59.92078 30.0335 -43.8998 -32.24784 83.32386 23.86041 -91.86527 -54.06786 34.93752
-0.00081 2e-05 -0.0002 -139.74884 36.08766 0.06944 -69.15825 5.33762 177.73745 22.82724 -69.2763 0.52547 39.98339 73.93991 -112.15312 1.92048 77.7606 -4.91135 -4.31401 -242.08187 -61.3295 99.44744 2.52631 -61.59026 -136.37881 31.46498 -36.30997 21.89907 69.67344 14.42696 -83.9973 53.55878 26.62051 -34.37419 -28.52887 75.98144 19.03813 -83.48914 -48.25064 31.8621
-0.00117 1e-05 -0.00035 -104.79602 26.97149 0.05476 -55.09766 4.85045 158.17664 19.41291 -61.77512 0.26725 53.20743 57.22687 -105.8953 3.03578 77.82804 -4.33459 -4.55504 -197.21963 -46.27372 96.37337 3.34134 -62.33305 -121.08446 28.95458 -26.59736 19.27062 61.53929 10.72609 -75.52011 47.21646 23.21808 -24.87796 -24.82139 68.66139 14.2307 -75.13883 -42.45134 28.79616
-0.00153 -1e-05 -0.00049 -69.8433 17.85529 0.04008 -41.03708 4.36331 138.61582 15.99869 -54.27395 0.00902 66.43138 40.51385 -99.63759 4.15111 77.89547 -3.75781 -4.79605 -152.35737 -31.21798 93.29924 4.15638 -63.07581 -105.79012 26.44416 -16.88468 16.64232 53.40608 7.02523 -67.04298 40.87406 19.81561 -15.3817 -21.11389 61.34154 9.42327 -66.78851 -36.65203 25.73021
-0.0019 -2e-05 -0.00064 -34.78272 8.71086 0.02534 -26.93308 3.87469 118.99454 12.57412 -46.74964 -0.24999 79.69604 23.74918 -93.36075 5.26992 77.96311 -3.17919 -5.03779 -107.35643 -16.11577 90.21553 4.97397 -63.82081 -90.44852 23.92597 -7.14185 14.00614 45.2493 3.31293 -58.53975 34.51195 16.40257 -5.85604 -17.39487 53.99944 4.60098 -58.41236 -30.83483 22.65478
-0.00226 -3e-05 -0.00078 -0.0584 -0.34541 0.01079 -12.96454 3.39061 99.56197 9.18149 -39.29751 -0.50653 92.83393 7.14563 -87.14331 6.37777 78.03012 -2.6064 -5.27731 -62.78829 -1.15845 87.16189 5.78354 -64.55893 -75.25437 21.43209 2.50668 11.3941 37.16319 -0.36371 -50.11775 28.21159 13.02266 3.57776 -13.71187 46.72617 -0.17494 -50.11683 -25.07347 19.60896
-0.00262 -4e-05 -0.00093 35.30221 -9.56854 -0.00413 1.26035 2.89796 79.77224 5.72854 -31.70879 -0.76776 106.21169 -9.76282 -80.81351 7.50639 78.09831 -2.02254 -5.52102 -17.40106 14.07304 84.05129 6.6083 -65.31004 -59.78117 18.8922 12.33374 8.73651 28.94424 -4.10782 -41.5421 21.7943 9.57999 13.18544 -9.96069 39.32276 -5.03861 -41.66874 -19.20643 16.5071
-0.00298 -5e-05 -0.00107 70.07982 -18.63879 -0.01871 15.25037 2.41316 60.30977 2.33084 -24.24521 -1.02469 119.3696 -26.39193 -74.58673 8.61598 78.16542 -1.44882 -5.76088 27.23568 29.05335 80.99287 7.41915 -66.04925 -44.56365 16.39444 21.99722 6.12065 20.84696 -7.79011 -33.10723 15.48414 6.19483 22.6338 -6.27194 32.03876 -9.82188 -33.36041 -13.43622 13.45658
-0.00334 -6e-05 -0.00122 104.1445 -27.52205 -0.03286 28.95314 1.93797 41.2475 -0.99931 -16.93471 -1.27635 132.25897 -42.67934 -68.4856 9.70228 78.2312 -0.88754 -5.99608 70.9546 43.7264 77.99833 8.21298 -66.77391 -29.6588 13.94831 31.46062 3.55574 12.8981 -11.3968 -24.84449 9.30504 2.88 31.88731 -2.6597 24.89996 -14.50684 -25.22307 -7.78441 10.46886
-0.0037 -7e-05 -0.00136 142.31127 -37.48111 -0.04943 44.30859 1.4075 19.88256 -4.71818 -8.74355 -1.55833 146.69441 -60.93251 -61.66049 10.92252 78.30464 -0.2548 -6.25825 119.9543 60.16707 74.63648 9.10472 -67.58228 -12.95491 11.20543 42.07514 0.69743 4.09408 -15.43849 -15.59124 2.37203 -0.83948 42.26191 1.39223 16.92324 -19.75748 -16.10212 -1.45132 7.11987
-0.00406 -8e-05 -0.00151 171.82064 -45.16978 -0.06093 56.17617 0.99369 3.37732 -7.6166 -2.41094 -1.7763 157.86627 -75.03722 -56.36398 11.86016 78.36189 0.22721 -6.46338 157.80919 72.87741 72.04964 9.78981 -68.21398 -0.04785 9.08864 50.26033 -1.54148 -2.90419 -18.56213 -8.42853 -2.96999 -3.70499 50.27051 4.51658 10.71655 -23.81427 -9.05692 3.44391 4.53326
-0.00438 -0.00012 -0.00166 177.36703 -46.57353 -0.05806 58.38876 0.90292 0.32369 -8.24474 -1.22313 -1.81706 160.00988 -77.65721 -55.29319 12.01495 78.37442 0.29126 -6.51157 164.81449 75.26083 71.60937 9.90308 -68.35673 2.34958 8.7064 51.7204 -2.06733 -4.91177 -19.14457 -7.05138 -3.90719 -4.20636 51.72983 5.07023 9.39591 -24.56639 -7.75853 4.35961 4.0574
-0.00469 -0.00017 -0.00181 174.25635 -45.70713 -0.0502 57.11381 0.9288 2.12948 -8.05234 -1.89368 -1.79381 158.88908 -76.12937 -55.75193 11.88728 78.37073 0.2047 -6.50256 160.67575 73.91445 71.94364 9.8097 -68.32283 0.95038 8.94995 50.75146 -1.97343 -5.11171 -18.80903 -7.76484 -3.25368 -3.8539 50.82334 4.69696 9.8477 -24.12476 -8.53556 3.83744 4.34377
